%TF.GenerationSoftware,KiCad,Pcbnew,9.0.6*%
%TF.CreationDate,2026-03-07T11:11:25-05:00*%
%TF.ProjectId,hexbug_remote,68657862-7567-45f7-9265-6d6f74652e6b,rev?*%
%TF.SameCoordinates,Original*%
%TF.FileFunction,Legend,Top*%
%TF.FilePolarity,Positive*%
%FSLAX46Y46*%
G04 Gerber Fmt 4.6, Leading zero omitted, Abs format (unit mm)*
G04 Created by KiCad (PCBNEW 9.0.6) date 2026-03-07 11:11:25*
%MOMM*%
%LPD*%
G01*
G04 APERTURE LIST*
%ADD10C,0.100000*%
%ADD11C,0.150000*%
%ADD12C,0.120000*%
G04 APERTURE END LIST*
D10*
X95780952Y-81562475D02*
X95780952Y-80562475D01*
X95780952Y-81038665D02*
X96352380Y-81038665D01*
X96352380Y-81562475D02*
X96352380Y-80562475D01*
X97209523Y-81514856D02*
X97114285Y-81562475D01*
X97114285Y-81562475D02*
X96923809Y-81562475D01*
X96923809Y-81562475D02*
X96828571Y-81514856D01*
X96828571Y-81514856D02*
X96780952Y-81419617D01*
X96780952Y-81419617D02*
X96780952Y-81038665D01*
X96780952Y-81038665D02*
X96828571Y-80943427D01*
X96828571Y-80943427D02*
X96923809Y-80895808D01*
X96923809Y-80895808D02*
X97114285Y-80895808D01*
X97114285Y-80895808D02*
X97209523Y-80943427D01*
X97209523Y-80943427D02*
X97257142Y-81038665D01*
X97257142Y-81038665D02*
X97257142Y-81133903D01*
X97257142Y-81133903D02*
X96780952Y-81229141D01*
X97590476Y-81562475D02*
X98114285Y-80895808D01*
X97590476Y-80895808D02*
X98114285Y-81562475D01*
X98495238Y-81562475D02*
X98495238Y-80562475D01*
X98495238Y-80943427D02*
X98590476Y-80895808D01*
X98590476Y-80895808D02*
X98780952Y-80895808D01*
X98780952Y-80895808D02*
X98876190Y-80943427D01*
X98876190Y-80943427D02*
X98923809Y-80991046D01*
X98923809Y-80991046D02*
X98971428Y-81086284D01*
X98971428Y-81086284D02*
X98971428Y-81371998D01*
X98971428Y-81371998D02*
X98923809Y-81467236D01*
X98923809Y-81467236D02*
X98876190Y-81514856D01*
X98876190Y-81514856D02*
X98780952Y-81562475D01*
X98780952Y-81562475D02*
X98590476Y-81562475D01*
X98590476Y-81562475D02*
X98495238Y-81514856D01*
X99828571Y-80895808D02*
X99828571Y-81562475D01*
X99400000Y-80895808D02*
X99400000Y-81419617D01*
X99400000Y-81419617D02*
X99447619Y-81514856D01*
X99447619Y-81514856D02*
X99542857Y-81562475D01*
X99542857Y-81562475D02*
X99685714Y-81562475D01*
X99685714Y-81562475D02*
X99780952Y-81514856D01*
X99780952Y-81514856D02*
X99828571Y-81467236D01*
X100733333Y-80895808D02*
X100733333Y-81705332D01*
X100733333Y-81705332D02*
X100685714Y-81800570D01*
X100685714Y-81800570D02*
X100638095Y-81848189D01*
X100638095Y-81848189D02*
X100542857Y-81895808D01*
X100542857Y-81895808D02*
X100400000Y-81895808D01*
X100400000Y-81895808D02*
X100304762Y-81848189D01*
X100733333Y-81514856D02*
X100638095Y-81562475D01*
X100638095Y-81562475D02*
X100447619Y-81562475D01*
X100447619Y-81562475D02*
X100352381Y-81514856D01*
X100352381Y-81514856D02*
X100304762Y-81467236D01*
X100304762Y-81467236D02*
X100257143Y-81371998D01*
X100257143Y-81371998D02*
X100257143Y-81086284D01*
X100257143Y-81086284D02*
X100304762Y-80991046D01*
X100304762Y-80991046D02*
X100352381Y-80943427D01*
X100352381Y-80943427D02*
X100447619Y-80895808D01*
X100447619Y-80895808D02*
X100638095Y-80895808D01*
X100638095Y-80895808D02*
X100733333Y-80943427D01*
X102542857Y-81562475D02*
X102209524Y-81086284D01*
X101971429Y-81562475D02*
X101971429Y-80562475D01*
X101971429Y-80562475D02*
X102352381Y-80562475D01*
X102352381Y-80562475D02*
X102447619Y-80610094D01*
X102447619Y-80610094D02*
X102495238Y-80657713D01*
X102495238Y-80657713D02*
X102542857Y-80752951D01*
X102542857Y-80752951D02*
X102542857Y-80895808D01*
X102542857Y-80895808D02*
X102495238Y-80991046D01*
X102495238Y-80991046D02*
X102447619Y-81038665D01*
X102447619Y-81038665D02*
X102352381Y-81086284D01*
X102352381Y-81086284D02*
X101971429Y-81086284D01*
X103352381Y-81514856D02*
X103257143Y-81562475D01*
X103257143Y-81562475D02*
X103066667Y-81562475D01*
X103066667Y-81562475D02*
X102971429Y-81514856D01*
X102971429Y-81514856D02*
X102923810Y-81419617D01*
X102923810Y-81419617D02*
X102923810Y-81038665D01*
X102923810Y-81038665D02*
X102971429Y-80943427D01*
X102971429Y-80943427D02*
X103066667Y-80895808D01*
X103066667Y-80895808D02*
X103257143Y-80895808D01*
X103257143Y-80895808D02*
X103352381Y-80943427D01*
X103352381Y-80943427D02*
X103400000Y-81038665D01*
X103400000Y-81038665D02*
X103400000Y-81133903D01*
X103400000Y-81133903D02*
X102923810Y-81229141D01*
X103828572Y-81562475D02*
X103828572Y-80895808D01*
X103828572Y-80991046D02*
X103876191Y-80943427D01*
X103876191Y-80943427D02*
X103971429Y-80895808D01*
X103971429Y-80895808D02*
X104114286Y-80895808D01*
X104114286Y-80895808D02*
X104209524Y-80943427D01*
X104209524Y-80943427D02*
X104257143Y-81038665D01*
X104257143Y-81038665D02*
X104257143Y-81562475D01*
X104257143Y-81038665D02*
X104304762Y-80943427D01*
X104304762Y-80943427D02*
X104400000Y-80895808D01*
X104400000Y-80895808D02*
X104542857Y-80895808D01*
X104542857Y-80895808D02*
X104638096Y-80943427D01*
X104638096Y-80943427D02*
X104685715Y-81038665D01*
X104685715Y-81038665D02*
X104685715Y-81562475D01*
X105304762Y-81562475D02*
X105209524Y-81514856D01*
X105209524Y-81514856D02*
X105161905Y-81467236D01*
X105161905Y-81467236D02*
X105114286Y-81371998D01*
X105114286Y-81371998D02*
X105114286Y-81086284D01*
X105114286Y-81086284D02*
X105161905Y-80991046D01*
X105161905Y-80991046D02*
X105209524Y-80943427D01*
X105209524Y-80943427D02*
X105304762Y-80895808D01*
X105304762Y-80895808D02*
X105447619Y-80895808D01*
X105447619Y-80895808D02*
X105542857Y-80943427D01*
X105542857Y-80943427D02*
X105590476Y-80991046D01*
X105590476Y-80991046D02*
X105638095Y-81086284D01*
X105638095Y-81086284D02*
X105638095Y-81371998D01*
X105638095Y-81371998D02*
X105590476Y-81467236D01*
X105590476Y-81467236D02*
X105542857Y-81514856D01*
X105542857Y-81514856D02*
X105447619Y-81562475D01*
X105447619Y-81562475D02*
X105304762Y-81562475D01*
X105923810Y-80895808D02*
X106304762Y-80895808D01*
X106066667Y-80562475D02*
X106066667Y-81419617D01*
X106066667Y-81419617D02*
X106114286Y-81514856D01*
X106114286Y-81514856D02*
X106209524Y-81562475D01*
X106209524Y-81562475D02*
X106304762Y-81562475D01*
X107019048Y-81514856D02*
X106923810Y-81562475D01*
X106923810Y-81562475D02*
X106733334Y-81562475D01*
X106733334Y-81562475D02*
X106638096Y-81514856D01*
X106638096Y-81514856D02*
X106590477Y-81419617D01*
X106590477Y-81419617D02*
X106590477Y-81038665D01*
X106590477Y-81038665D02*
X106638096Y-80943427D01*
X106638096Y-80943427D02*
X106733334Y-80895808D01*
X106733334Y-80895808D02*
X106923810Y-80895808D01*
X106923810Y-80895808D02*
X107019048Y-80943427D01*
X107019048Y-80943427D02*
X107066667Y-81038665D01*
X107066667Y-81038665D02*
X107066667Y-81133903D01*
X107066667Y-81133903D02*
X106590477Y-81229141D01*
X100042856Y-83172419D02*
X99709523Y-82696228D01*
X99471428Y-83172419D02*
X99471428Y-82172419D01*
X99471428Y-82172419D02*
X99852380Y-82172419D01*
X99852380Y-82172419D02*
X99947618Y-82220038D01*
X99947618Y-82220038D02*
X99995237Y-82267657D01*
X99995237Y-82267657D02*
X100042856Y-82362895D01*
X100042856Y-82362895D02*
X100042856Y-82505752D01*
X100042856Y-82505752D02*
X99995237Y-82600990D01*
X99995237Y-82600990D02*
X99947618Y-82648609D01*
X99947618Y-82648609D02*
X99852380Y-82696228D01*
X99852380Y-82696228D02*
X99471428Y-82696228D01*
X100852380Y-83124800D02*
X100757142Y-83172419D01*
X100757142Y-83172419D02*
X100566666Y-83172419D01*
X100566666Y-83172419D02*
X100471428Y-83124800D01*
X100471428Y-83124800D02*
X100423809Y-83029561D01*
X100423809Y-83029561D02*
X100423809Y-82648609D01*
X100423809Y-82648609D02*
X100471428Y-82553371D01*
X100471428Y-82553371D02*
X100566666Y-82505752D01*
X100566666Y-82505752D02*
X100757142Y-82505752D01*
X100757142Y-82505752D02*
X100852380Y-82553371D01*
X100852380Y-82553371D02*
X100899999Y-82648609D01*
X100899999Y-82648609D02*
X100899999Y-82743847D01*
X100899999Y-82743847D02*
X100423809Y-82839085D01*
X101233333Y-82505752D02*
X101471428Y-83172419D01*
X101471428Y-83172419D02*
X101709523Y-82505752D01*
X103376190Y-83172419D02*
X102804762Y-83172419D01*
X103090476Y-83172419D02*
X103090476Y-82172419D01*
X103090476Y-82172419D02*
X102995238Y-82315276D01*
X102995238Y-82315276D02*
X102900000Y-82410514D01*
X102900000Y-82410514D02*
X102804762Y-82458133D01*
D11*
X92524819Y-86166666D02*
X92048628Y-86499999D01*
X92524819Y-86738094D02*
X91524819Y-86738094D01*
X91524819Y-86738094D02*
X91524819Y-86357142D01*
X91524819Y-86357142D02*
X91572438Y-86261904D01*
X91572438Y-86261904D02*
X91620057Y-86214285D01*
X91620057Y-86214285D02*
X91715295Y-86166666D01*
X91715295Y-86166666D02*
X91858152Y-86166666D01*
X91858152Y-86166666D02*
X91953390Y-86214285D01*
X91953390Y-86214285D02*
X92001009Y-86261904D01*
X92001009Y-86261904D02*
X92048628Y-86357142D01*
X92048628Y-86357142D02*
X92048628Y-86738094D01*
X91524819Y-85309523D02*
X91524819Y-85499999D01*
X91524819Y-85499999D02*
X91572438Y-85595237D01*
X91572438Y-85595237D02*
X91620057Y-85642856D01*
X91620057Y-85642856D02*
X91762914Y-85738094D01*
X91762914Y-85738094D02*
X91953390Y-85785713D01*
X91953390Y-85785713D02*
X92334342Y-85785713D01*
X92334342Y-85785713D02*
X92429580Y-85738094D01*
X92429580Y-85738094D02*
X92477200Y-85690475D01*
X92477200Y-85690475D02*
X92524819Y-85595237D01*
X92524819Y-85595237D02*
X92524819Y-85404761D01*
X92524819Y-85404761D02*
X92477200Y-85309523D01*
X92477200Y-85309523D02*
X92429580Y-85261904D01*
X92429580Y-85261904D02*
X92334342Y-85214285D01*
X92334342Y-85214285D02*
X92096247Y-85214285D01*
X92096247Y-85214285D02*
X92001009Y-85261904D01*
X92001009Y-85261904D02*
X91953390Y-85309523D01*
X91953390Y-85309523D02*
X91905771Y-85404761D01*
X91905771Y-85404761D02*
X91905771Y-85595237D01*
X91905771Y-85595237D02*
X91953390Y-85690475D01*
X91953390Y-85690475D02*
X92001009Y-85738094D01*
X92001009Y-85738094D02*
X92096247Y-85785713D01*
X80416667Y-81157200D02*
X80559524Y-81204819D01*
X80559524Y-81204819D02*
X80797619Y-81204819D01*
X80797619Y-81204819D02*
X80892857Y-81157200D01*
X80892857Y-81157200D02*
X80940476Y-81109580D01*
X80940476Y-81109580D02*
X80988095Y-81014342D01*
X80988095Y-81014342D02*
X80988095Y-80919104D01*
X80988095Y-80919104D02*
X80940476Y-80823866D01*
X80940476Y-80823866D02*
X80892857Y-80776247D01*
X80892857Y-80776247D02*
X80797619Y-80728628D01*
X80797619Y-80728628D02*
X80607143Y-80681009D01*
X80607143Y-80681009D02*
X80511905Y-80633390D01*
X80511905Y-80633390D02*
X80464286Y-80585771D01*
X80464286Y-80585771D02*
X80416667Y-80490533D01*
X80416667Y-80490533D02*
X80416667Y-80395295D01*
X80416667Y-80395295D02*
X80464286Y-80300057D01*
X80464286Y-80300057D02*
X80511905Y-80252438D01*
X80511905Y-80252438D02*
X80607143Y-80204819D01*
X80607143Y-80204819D02*
X80845238Y-80204819D01*
X80845238Y-80204819D02*
X80988095Y-80252438D01*
X81321429Y-80204819D02*
X81559524Y-81204819D01*
X81559524Y-81204819D02*
X81750000Y-80490533D01*
X81750000Y-80490533D02*
X81940476Y-81204819D01*
X81940476Y-81204819D02*
X82178572Y-80204819D01*
X82988095Y-80538152D02*
X82988095Y-81204819D01*
X82750000Y-80157200D02*
X82511905Y-80871485D01*
X82511905Y-80871485D02*
X83130952Y-80871485D01*
X104291905Y-79114819D02*
X104291905Y-78114819D01*
X104291905Y-78114819D02*
X104530000Y-78114819D01*
X104530000Y-78114819D02*
X104672857Y-78162438D01*
X104672857Y-78162438D02*
X104768095Y-78257676D01*
X104768095Y-78257676D02*
X104815714Y-78352914D01*
X104815714Y-78352914D02*
X104863333Y-78543390D01*
X104863333Y-78543390D02*
X104863333Y-78686247D01*
X104863333Y-78686247D02*
X104815714Y-78876723D01*
X104815714Y-78876723D02*
X104768095Y-78971961D01*
X104768095Y-78971961D02*
X104672857Y-79067200D01*
X104672857Y-79067200D02*
X104530000Y-79114819D01*
X104530000Y-79114819D02*
X104291905Y-79114819D01*
X105720476Y-78448152D02*
X105720476Y-79114819D01*
X105482381Y-78067200D02*
X105244286Y-78781485D01*
X105244286Y-78781485D02*
X105863333Y-78781485D01*
X113838095Y-104054819D02*
X113838095Y-104864342D01*
X113838095Y-104864342D02*
X113885714Y-104959580D01*
X113885714Y-104959580D02*
X113933333Y-105007200D01*
X113933333Y-105007200D02*
X114028571Y-105054819D01*
X114028571Y-105054819D02*
X114219047Y-105054819D01*
X114219047Y-105054819D02*
X114314285Y-105007200D01*
X114314285Y-105007200D02*
X114361904Y-104959580D01*
X114361904Y-104959580D02*
X114409523Y-104864342D01*
X114409523Y-104864342D02*
X114409523Y-104054819D01*
X115409523Y-105054819D02*
X114838095Y-105054819D01*
X115123809Y-105054819D02*
X115123809Y-104054819D01*
X115123809Y-104054819D02*
X115028571Y-104197676D01*
X115028571Y-104197676D02*
X114933333Y-104292914D01*
X114933333Y-104292914D02*
X114838095Y-104340533D01*
X119907200Y-92893332D02*
X119954819Y-92750475D01*
X119954819Y-92750475D02*
X119954819Y-92512380D01*
X119954819Y-92512380D02*
X119907200Y-92417142D01*
X119907200Y-92417142D02*
X119859580Y-92369523D01*
X119859580Y-92369523D02*
X119764342Y-92321904D01*
X119764342Y-92321904D02*
X119669104Y-92321904D01*
X119669104Y-92321904D02*
X119573866Y-92369523D01*
X119573866Y-92369523D02*
X119526247Y-92417142D01*
X119526247Y-92417142D02*
X119478628Y-92512380D01*
X119478628Y-92512380D02*
X119431009Y-92702856D01*
X119431009Y-92702856D02*
X119383390Y-92798094D01*
X119383390Y-92798094D02*
X119335771Y-92845713D01*
X119335771Y-92845713D02*
X119240533Y-92893332D01*
X119240533Y-92893332D02*
X119145295Y-92893332D01*
X119145295Y-92893332D02*
X119050057Y-92845713D01*
X119050057Y-92845713D02*
X119002438Y-92798094D01*
X119002438Y-92798094D02*
X118954819Y-92702856D01*
X118954819Y-92702856D02*
X118954819Y-92464761D01*
X118954819Y-92464761D02*
X119002438Y-92321904D01*
X118954819Y-91988570D02*
X119954819Y-91750475D01*
X119954819Y-91750475D02*
X119240533Y-91559999D01*
X119240533Y-91559999D02*
X119954819Y-91369523D01*
X119954819Y-91369523D02*
X118954819Y-91131428D01*
X118954819Y-90274285D02*
X118954819Y-90750475D01*
X118954819Y-90750475D02*
X119431009Y-90798094D01*
X119431009Y-90798094D02*
X119383390Y-90750475D01*
X119383390Y-90750475D02*
X119335771Y-90655237D01*
X119335771Y-90655237D02*
X119335771Y-90417142D01*
X119335771Y-90417142D02*
X119383390Y-90321904D01*
X119383390Y-90321904D02*
X119431009Y-90274285D01*
X119431009Y-90274285D02*
X119526247Y-90226666D01*
X119526247Y-90226666D02*
X119764342Y-90226666D01*
X119764342Y-90226666D02*
X119859580Y-90274285D01*
X119859580Y-90274285D02*
X119907200Y-90321904D01*
X119907200Y-90321904D02*
X119954819Y-90417142D01*
X119954819Y-90417142D02*
X119954819Y-90655237D01*
X119954819Y-90655237D02*
X119907200Y-90750475D01*
X119907200Y-90750475D02*
X119859580Y-90798094D01*
X74466666Y-81824819D02*
X74466666Y-82539104D01*
X74466666Y-82539104D02*
X74419047Y-82681961D01*
X74419047Y-82681961D02*
X74323809Y-82777200D01*
X74323809Y-82777200D02*
X74180952Y-82824819D01*
X74180952Y-82824819D02*
X74085714Y-82824819D01*
X74847619Y-81824819D02*
X75466666Y-81824819D01*
X75466666Y-81824819D02*
X75133333Y-82205771D01*
X75133333Y-82205771D02*
X75276190Y-82205771D01*
X75276190Y-82205771D02*
X75371428Y-82253390D01*
X75371428Y-82253390D02*
X75419047Y-82301009D01*
X75419047Y-82301009D02*
X75466666Y-82396247D01*
X75466666Y-82396247D02*
X75466666Y-82634342D01*
X75466666Y-82634342D02*
X75419047Y-82729580D01*
X75419047Y-82729580D02*
X75371428Y-82777200D01*
X75371428Y-82777200D02*
X75276190Y-82824819D01*
X75276190Y-82824819D02*
X74990476Y-82824819D01*
X74990476Y-82824819D02*
X74895238Y-82777200D01*
X74895238Y-82777200D02*
X74847619Y-82729580D01*
X97854819Y-100566666D02*
X97378628Y-100899999D01*
X97854819Y-101138094D02*
X96854819Y-101138094D01*
X96854819Y-101138094D02*
X96854819Y-100757142D01*
X96854819Y-100757142D02*
X96902438Y-100661904D01*
X96902438Y-100661904D02*
X96950057Y-100614285D01*
X96950057Y-100614285D02*
X97045295Y-100566666D01*
X97045295Y-100566666D02*
X97188152Y-100566666D01*
X97188152Y-100566666D02*
X97283390Y-100614285D01*
X97283390Y-100614285D02*
X97331009Y-100661904D01*
X97331009Y-100661904D02*
X97378628Y-100757142D01*
X97378628Y-100757142D02*
X97378628Y-101138094D01*
X96950057Y-100185713D02*
X96902438Y-100138094D01*
X96902438Y-100138094D02*
X96854819Y-100042856D01*
X96854819Y-100042856D02*
X96854819Y-99804761D01*
X96854819Y-99804761D02*
X96902438Y-99709523D01*
X96902438Y-99709523D02*
X96950057Y-99661904D01*
X96950057Y-99661904D02*
X97045295Y-99614285D01*
X97045295Y-99614285D02*
X97140533Y-99614285D01*
X97140533Y-99614285D02*
X97283390Y-99661904D01*
X97283390Y-99661904D02*
X97854819Y-100233332D01*
X97854819Y-100233332D02*
X97854819Y-99614285D01*
X113266666Y-84104819D02*
X113266666Y-84819104D01*
X113266666Y-84819104D02*
X113219047Y-84961961D01*
X113219047Y-84961961D02*
X113123809Y-85057200D01*
X113123809Y-85057200D02*
X112980952Y-85104819D01*
X112980952Y-85104819D02*
X112885714Y-85104819D01*
X113742857Y-85104819D02*
X113742857Y-84104819D01*
X113742857Y-84104819D02*
X114123809Y-84104819D01*
X114123809Y-84104819D02*
X114219047Y-84152438D01*
X114219047Y-84152438D02*
X114266666Y-84200057D01*
X114266666Y-84200057D02*
X114314285Y-84295295D01*
X114314285Y-84295295D02*
X114314285Y-84438152D01*
X114314285Y-84438152D02*
X114266666Y-84533390D01*
X114266666Y-84533390D02*
X114219047Y-84581009D01*
X114219047Y-84581009D02*
X114123809Y-84628628D01*
X114123809Y-84628628D02*
X113742857Y-84628628D01*
X115266666Y-85104819D02*
X114695238Y-85104819D01*
X114980952Y-85104819D02*
X114980952Y-84104819D01*
X114980952Y-84104819D02*
X114885714Y-84247676D01*
X114885714Y-84247676D02*
X114790476Y-84342914D01*
X114790476Y-84342914D02*
X114695238Y-84390533D01*
X99933333Y-92259580D02*
X99885714Y-92307200D01*
X99885714Y-92307200D02*
X99742857Y-92354819D01*
X99742857Y-92354819D02*
X99647619Y-92354819D01*
X99647619Y-92354819D02*
X99504762Y-92307200D01*
X99504762Y-92307200D02*
X99409524Y-92211961D01*
X99409524Y-92211961D02*
X99361905Y-92116723D01*
X99361905Y-92116723D02*
X99314286Y-91926247D01*
X99314286Y-91926247D02*
X99314286Y-91783390D01*
X99314286Y-91783390D02*
X99361905Y-91592914D01*
X99361905Y-91592914D02*
X99409524Y-91497676D01*
X99409524Y-91497676D02*
X99504762Y-91402438D01*
X99504762Y-91402438D02*
X99647619Y-91354819D01*
X99647619Y-91354819D02*
X99742857Y-91354819D01*
X99742857Y-91354819D02*
X99885714Y-91402438D01*
X99885714Y-91402438D02*
X99933333Y-91450057D01*
X100790476Y-91688152D02*
X100790476Y-92354819D01*
X100552381Y-91307200D02*
X100314286Y-92021485D01*
X100314286Y-92021485D02*
X100933333Y-92021485D01*
X106733333Y-95189580D02*
X106685714Y-95237200D01*
X106685714Y-95237200D02*
X106542857Y-95284819D01*
X106542857Y-95284819D02*
X106447619Y-95284819D01*
X106447619Y-95284819D02*
X106304762Y-95237200D01*
X106304762Y-95237200D02*
X106209524Y-95141961D01*
X106209524Y-95141961D02*
X106161905Y-95046723D01*
X106161905Y-95046723D02*
X106114286Y-94856247D01*
X106114286Y-94856247D02*
X106114286Y-94713390D01*
X106114286Y-94713390D02*
X106161905Y-94522914D01*
X106161905Y-94522914D02*
X106209524Y-94427676D01*
X106209524Y-94427676D02*
X106304762Y-94332438D01*
X106304762Y-94332438D02*
X106447619Y-94284819D01*
X106447619Y-94284819D02*
X106542857Y-94284819D01*
X106542857Y-94284819D02*
X106685714Y-94332438D01*
X106685714Y-94332438D02*
X106733333Y-94380057D01*
X107590476Y-94284819D02*
X107400000Y-94284819D01*
X107400000Y-94284819D02*
X107304762Y-94332438D01*
X107304762Y-94332438D02*
X107257143Y-94380057D01*
X107257143Y-94380057D02*
X107161905Y-94522914D01*
X107161905Y-94522914D02*
X107114286Y-94713390D01*
X107114286Y-94713390D02*
X107114286Y-95094342D01*
X107114286Y-95094342D02*
X107161905Y-95189580D01*
X107161905Y-95189580D02*
X107209524Y-95237200D01*
X107209524Y-95237200D02*
X107304762Y-95284819D01*
X107304762Y-95284819D02*
X107495238Y-95284819D01*
X107495238Y-95284819D02*
X107590476Y-95237200D01*
X107590476Y-95237200D02*
X107638095Y-95189580D01*
X107638095Y-95189580D02*
X107685714Y-95094342D01*
X107685714Y-95094342D02*
X107685714Y-94856247D01*
X107685714Y-94856247D02*
X107638095Y-94761009D01*
X107638095Y-94761009D02*
X107590476Y-94713390D01*
X107590476Y-94713390D02*
X107495238Y-94665771D01*
X107495238Y-94665771D02*
X107304762Y-94665771D01*
X107304762Y-94665771D02*
X107209524Y-94713390D01*
X107209524Y-94713390D02*
X107161905Y-94761009D01*
X107161905Y-94761009D02*
X107114286Y-94856247D01*
X80416667Y-101907200D02*
X80559524Y-101954819D01*
X80559524Y-101954819D02*
X80797619Y-101954819D01*
X80797619Y-101954819D02*
X80892857Y-101907200D01*
X80892857Y-101907200D02*
X80940476Y-101859580D01*
X80940476Y-101859580D02*
X80988095Y-101764342D01*
X80988095Y-101764342D02*
X80988095Y-101669104D01*
X80988095Y-101669104D02*
X80940476Y-101573866D01*
X80940476Y-101573866D02*
X80892857Y-101526247D01*
X80892857Y-101526247D02*
X80797619Y-101478628D01*
X80797619Y-101478628D02*
X80607143Y-101431009D01*
X80607143Y-101431009D02*
X80511905Y-101383390D01*
X80511905Y-101383390D02*
X80464286Y-101335771D01*
X80464286Y-101335771D02*
X80416667Y-101240533D01*
X80416667Y-101240533D02*
X80416667Y-101145295D01*
X80416667Y-101145295D02*
X80464286Y-101050057D01*
X80464286Y-101050057D02*
X80511905Y-101002438D01*
X80511905Y-101002438D02*
X80607143Y-100954819D01*
X80607143Y-100954819D02*
X80845238Y-100954819D01*
X80845238Y-100954819D02*
X80988095Y-101002438D01*
X81321429Y-100954819D02*
X81559524Y-101954819D01*
X81559524Y-101954819D02*
X81750000Y-101240533D01*
X81750000Y-101240533D02*
X81940476Y-101954819D01*
X81940476Y-101954819D02*
X82178572Y-100954819D01*
X82464286Y-100954819D02*
X83083333Y-100954819D01*
X83083333Y-100954819D02*
X82750000Y-101335771D01*
X82750000Y-101335771D02*
X82892857Y-101335771D01*
X82892857Y-101335771D02*
X82988095Y-101383390D01*
X82988095Y-101383390D02*
X83035714Y-101431009D01*
X83035714Y-101431009D02*
X83083333Y-101526247D01*
X83083333Y-101526247D02*
X83083333Y-101764342D01*
X83083333Y-101764342D02*
X83035714Y-101859580D01*
X83035714Y-101859580D02*
X82988095Y-101907200D01*
X82988095Y-101907200D02*
X82892857Y-101954819D01*
X82892857Y-101954819D02*
X82607143Y-101954819D01*
X82607143Y-101954819D02*
X82511905Y-101907200D01*
X82511905Y-101907200D02*
X82464286Y-101859580D01*
X123357200Y-93083332D02*
X123404819Y-92940475D01*
X123404819Y-92940475D02*
X123404819Y-92702380D01*
X123404819Y-92702380D02*
X123357200Y-92607142D01*
X123357200Y-92607142D02*
X123309580Y-92559523D01*
X123309580Y-92559523D02*
X123214342Y-92511904D01*
X123214342Y-92511904D02*
X123119104Y-92511904D01*
X123119104Y-92511904D02*
X123023866Y-92559523D01*
X123023866Y-92559523D02*
X122976247Y-92607142D01*
X122976247Y-92607142D02*
X122928628Y-92702380D01*
X122928628Y-92702380D02*
X122881009Y-92892856D01*
X122881009Y-92892856D02*
X122833390Y-92988094D01*
X122833390Y-92988094D02*
X122785771Y-93035713D01*
X122785771Y-93035713D02*
X122690533Y-93083332D01*
X122690533Y-93083332D02*
X122595295Y-93083332D01*
X122595295Y-93083332D02*
X122500057Y-93035713D01*
X122500057Y-93035713D02*
X122452438Y-92988094D01*
X122452438Y-92988094D02*
X122404819Y-92892856D01*
X122404819Y-92892856D02*
X122404819Y-92654761D01*
X122404819Y-92654761D02*
X122452438Y-92511904D01*
X122404819Y-92178570D02*
X123404819Y-91940475D01*
X123404819Y-91940475D02*
X122690533Y-91749999D01*
X122690533Y-91749999D02*
X123404819Y-91559523D01*
X123404819Y-91559523D02*
X122404819Y-91321428D01*
X122404819Y-90511904D02*
X122404819Y-90702380D01*
X122404819Y-90702380D02*
X122452438Y-90797618D01*
X122452438Y-90797618D02*
X122500057Y-90845237D01*
X122500057Y-90845237D02*
X122642914Y-90940475D01*
X122642914Y-90940475D02*
X122833390Y-90988094D01*
X122833390Y-90988094D02*
X123214342Y-90988094D01*
X123214342Y-90988094D02*
X123309580Y-90940475D01*
X123309580Y-90940475D02*
X123357200Y-90892856D01*
X123357200Y-90892856D02*
X123404819Y-90797618D01*
X123404819Y-90797618D02*
X123404819Y-90607142D01*
X123404819Y-90607142D02*
X123357200Y-90511904D01*
X123357200Y-90511904D02*
X123309580Y-90464285D01*
X123309580Y-90464285D02*
X123214342Y-90416666D01*
X123214342Y-90416666D02*
X122976247Y-90416666D01*
X122976247Y-90416666D02*
X122881009Y-90464285D01*
X122881009Y-90464285D02*
X122833390Y-90511904D01*
X122833390Y-90511904D02*
X122785771Y-90607142D01*
X122785771Y-90607142D02*
X122785771Y-90797618D01*
X122785771Y-90797618D02*
X122833390Y-90892856D01*
X122833390Y-90892856D02*
X122881009Y-90940475D01*
X122881009Y-90940475D02*
X122976247Y-90988094D01*
X89324819Y-86166666D02*
X88848628Y-86499999D01*
X89324819Y-86738094D02*
X88324819Y-86738094D01*
X88324819Y-86738094D02*
X88324819Y-86357142D01*
X88324819Y-86357142D02*
X88372438Y-86261904D01*
X88372438Y-86261904D02*
X88420057Y-86214285D01*
X88420057Y-86214285D02*
X88515295Y-86166666D01*
X88515295Y-86166666D02*
X88658152Y-86166666D01*
X88658152Y-86166666D02*
X88753390Y-86214285D01*
X88753390Y-86214285D02*
X88801009Y-86261904D01*
X88801009Y-86261904D02*
X88848628Y-86357142D01*
X88848628Y-86357142D02*
X88848628Y-86738094D01*
X88324819Y-85833332D02*
X88324819Y-85166666D01*
X88324819Y-85166666D02*
X89324819Y-85595237D01*
X89254819Y-84038094D02*
X88254819Y-84038094D01*
X88254819Y-84038094D02*
X88254819Y-83799999D01*
X88254819Y-83799999D02*
X88302438Y-83657142D01*
X88302438Y-83657142D02*
X88397676Y-83561904D01*
X88397676Y-83561904D02*
X88492914Y-83514285D01*
X88492914Y-83514285D02*
X88683390Y-83466666D01*
X88683390Y-83466666D02*
X88826247Y-83466666D01*
X88826247Y-83466666D02*
X89016723Y-83514285D01*
X89016723Y-83514285D02*
X89111961Y-83561904D01*
X89111961Y-83561904D02*
X89207200Y-83657142D01*
X89207200Y-83657142D02*
X89254819Y-83799999D01*
X89254819Y-83799999D02*
X89254819Y-84038094D01*
X88254819Y-83133332D02*
X88254819Y-82514285D01*
X88254819Y-82514285D02*
X88635771Y-82847618D01*
X88635771Y-82847618D02*
X88635771Y-82704761D01*
X88635771Y-82704761D02*
X88683390Y-82609523D01*
X88683390Y-82609523D02*
X88731009Y-82561904D01*
X88731009Y-82561904D02*
X88826247Y-82514285D01*
X88826247Y-82514285D02*
X89064342Y-82514285D01*
X89064342Y-82514285D02*
X89159580Y-82561904D01*
X89159580Y-82561904D02*
X89207200Y-82609523D01*
X89207200Y-82609523D02*
X89254819Y-82704761D01*
X89254819Y-82704761D02*
X89254819Y-82990475D01*
X89254819Y-82990475D02*
X89207200Y-83085713D01*
X89207200Y-83085713D02*
X89159580Y-83133332D01*
X132089580Y-100266666D02*
X132137200Y-100314285D01*
X132137200Y-100314285D02*
X132184819Y-100457142D01*
X132184819Y-100457142D02*
X132184819Y-100552380D01*
X132184819Y-100552380D02*
X132137200Y-100695237D01*
X132137200Y-100695237D02*
X132041961Y-100790475D01*
X132041961Y-100790475D02*
X131946723Y-100838094D01*
X131946723Y-100838094D02*
X131756247Y-100885713D01*
X131756247Y-100885713D02*
X131613390Y-100885713D01*
X131613390Y-100885713D02*
X131422914Y-100838094D01*
X131422914Y-100838094D02*
X131327676Y-100790475D01*
X131327676Y-100790475D02*
X131232438Y-100695237D01*
X131232438Y-100695237D02*
X131184819Y-100552380D01*
X131184819Y-100552380D02*
X131184819Y-100457142D01*
X131184819Y-100457142D02*
X131232438Y-100314285D01*
X131232438Y-100314285D02*
X131280057Y-100266666D01*
X131280057Y-99885713D02*
X131232438Y-99838094D01*
X131232438Y-99838094D02*
X131184819Y-99742856D01*
X131184819Y-99742856D02*
X131184819Y-99504761D01*
X131184819Y-99504761D02*
X131232438Y-99409523D01*
X131232438Y-99409523D02*
X131280057Y-99361904D01*
X131280057Y-99361904D02*
X131375295Y-99314285D01*
X131375295Y-99314285D02*
X131470533Y-99314285D01*
X131470533Y-99314285D02*
X131613390Y-99361904D01*
X131613390Y-99361904D02*
X132184819Y-99933332D01*
X132184819Y-99933332D02*
X132184819Y-99314285D01*
X112133333Y-98054819D02*
X111800000Y-97578628D01*
X111561905Y-98054819D02*
X111561905Y-97054819D01*
X111561905Y-97054819D02*
X111942857Y-97054819D01*
X111942857Y-97054819D02*
X112038095Y-97102438D01*
X112038095Y-97102438D02*
X112085714Y-97150057D01*
X112085714Y-97150057D02*
X112133333Y-97245295D01*
X112133333Y-97245295D02*
X112133333Y-97388152D01*
X112133333Y-97388152D02*
X112085714Y-97483390D01*
X112085714Y-97483390D02*
X112038095Y-97531009D01*
X112038095Y-97531009D02*
X111942857Y-97578628D01*
X111942857Y-97578628D02*
X111561905Y-97578628D01*
X112466667Y-97054819D02*
X113085714Y-97054819D01*
X113085714Y-97054819D02*
X112752381Y-97435771D01*
X112752381Y-97435771D02*
X112895238Y-97435771D01*
X112895238Y-97435771D02*
X112990476Y-97483390D01*
X112990476Y-97483390D02*
X113038095Y-97531009D01*
X113038095Y-97531009D02*
X113085714Y-97626247D01*
X113085714Y-97626247D02*
X113085714Y-97864342D01*
X113085714Y-97864342D02*
X113038095Y-97959580D01*
X113038095Y-97959580D02*
X112990476Y-98007200D01*
X112990476Y-98007200D02*
X112895238Y-98054819D01*
X112895238Y-98054819D02*
X112609524Y-98054819D01*
X112609524Y-98054819D02*
X112514286Y-98007200D01*
X112514286Y-98007200D02*
X112466667Y-97959580D01*
X109333333Y-92159580D02*
X109285714Y-92207200D01*
X109285714Y-92207200D02*
X109142857Y-92254819D01*
X109142857Y-92254819D02*
X109047619Y-92254819D01*
X109047619Y-92254819D02*
X108904762Y-92207200D01*
X108904762Y-92207200D02*
X108809524Y-92111961D01*
X108809524Y-92111961D02*
X108761905Y-92016723D01*
X108761905Y-92016723D02*
X108714286Y-91826247D01*
X108714286Y-91826247D02*
X108714286Y-91683390D01*
X108714286Y-91683390D02*
X108761905Y-91492914D01*
X108761905Y-91492914D02*
X108809524Y-91397676D01*
X108809524Y-91397676D02*
X108904762Y-91302438D01*
X108904762Y-91302438D02*
X109047619Y-91254819D01*
X109047619Y-91254819D02*
X109142857Y-91254819D01*
X109142857Y-91254819D02*
X109285714Y-91302438D01*
X109285714Y-91302438D02*
X109333333Y-91350057D01*
X110238095Y-91254819D02*
X109761905Y-91254819D01*
X109761905Y-91254819D02*
X109714286Y-91731009D01*
X109714286Y-91731009D02*
X109761905Y-91683390D01*
X109761905Y-91683390D02*
X109857143Y-91635771D01*
X109857143Y-91635771D02*
X110095238Y-91635771D01*
X110095238Y-91635771D02*
X110190476Y-91683390D01*
X110190476Y-91683390D02*
X110238095Y-91731009D01*
X110238095Y-91731009D02*
X110285714Y-91826247D01*
X110285714Y-91826247D02*
X110285714Y-92064342D01*
X110285714Y-92064342D02*
X110238095Y-92159580D01*
X110238095Y-92159580D02*
X110190476Y-92207200D01*
X110190476Y-92207200D02*
X110095238Y-92254819D01*
X110095238Y-92254819D02*
X109857143Y-92254819D01*
X109857143Y-92254819D02*
X109761905Y-92207200D01*
X109761905Y-92207200D02*
X109714286Y-92159580D01*
X99454819Y-100566666D02*
X98978628Y-100899999D01*
X99454819Y-101138094D02*
X98454819Y-101138094D01*
X98454819Y-101138094D02*
X98454819Y-100757142D01*
X98454819Y-100757142D02*
X98502438Y-100661904D01*
X98502438Y-100661904D02*
X98550057Y-100614285D01*
X98550057Y-100614285D02*
X98645295Y-100566666D01*
X98645295Y-100566666D02*
X98788152Y-100566666D01*
X98788152Y-100566666D02*
X98883390Y-100614285D01*
X98883390Y-100614285D02*
X98931009Y-100661904D01*
X98931009Y-100661904D02*
X98978628Y-100757142D01*
X98978628Y-100757142D02*
X98978628Y-101138094D01*
X99454819Y-99614285D02*
X99454819Y-100185713D01*
X99454819Y-99899999D02*
X98454819Y-99899999D01*
X98454819Y-99899999D02*
X98597676Y-99995237D01*
X98597676Y-99995237D02*
X98692914Y-100090475D01*
X98692914Y-100090475D02*
X98740533Y-100185713D01*
X108454819Y-89361904D02*
X109264342Y-89361904D01*
X109264342Y-89361904D02*
X109359580Y-89314285D01*
X109359580Y-89314285D02*
X109407200Y-89266666D01*
X109407200Y-89266666D02*
X109454819Y-89171428D01*
X109454819Y-89171428D02*
X109454819Y-88980952D01*
X109454819Y-88980952D02*
X109407200Y-88885714D01*
X109407200Y-88885714D02*
X109359580Y-88838095D01*
X109359580Y-88838095D02*
X109264342Y-88790476D01*
X109264342Y-88790476D02*
X108454819Y-88790476D01*
X108550057Y-88361904D02*
X108502438Y-88314285D01*
X108502438Y-88314285D02*
X108454819Y-88219047D01*
X108454819Y-88219047D02*
X108454819Y-87980952D01*
X108454819Y-87980952D02*
X108502438Y-87885714D01*
X108502438Y-87885714D02*
X108550057Y-87838095D01*
X108550057Y-87838095D02*
X108645295Y-87790476D01*
X108645295Y-87790476D02*
X108740533Y-87790476D01*
X108740533Y-87790476D02*
X108883390Y-87838095D01*
X108883390Y-87838095D02*
X109454819Y-88409523D01*
X109454819Y-88409523D02*
X109454819Y-87790476D01*
X119933333Y-98154819D02*
X119600000Y-97678628D01*
X119361905Y-98154819D02*
X119361905Y-97154819D01*
X119361905Y-97154819D02*
X119742857Y-97154819D01*
X119742857Y-97154819D02*
X119838095Y-97202438D01*
X119838095Y-97202438D02*
X119885714Y-97250057D01*
X119885714Y-97250057D02*
X119933333Y-97345295D01*
X119933333Y-97345295D02*
X119933333Y-97488152D01*
X119933333Y-97488152D02*
X119885714Y-97583390D01*
X119885714Y-97583390D02*
X119838095Y-97631009D01*
X119838095Y-97631009D02*
X119742857Y-97678628D01*
X119742857Y-97678628D02*
X119361905Y-97678628D01*
X120504762Y-97583390D02*
X120409524Y-97535771D01*
X120409524Y-97535771D02*
X120361905Y-97488152D01*
X120361905Y-97488152D02*
X120314286Y-97392914D01*
X120314286Y-97392914D02*
X120314286Y-97345295D01*
X120314286Y-97345295D02*
X120361905Y-97250057D01*
X120361905Y-97250057D02*
X120409524Y-97202438D01*
X120409524Y-97202438D02*
X120504762Y-97154819D01*
X120504762Y-97154819D02*
X120695238Y-97154819D01*
X120695238Y-97154819D02*
X120790476Y-97202438D01*
X120790476Y-97202438D02*
X120838095Y-97250057D01*
X120838095Y-97250057D02*
X120885714Y-97345295D01*
X120885714Y-97345295D02*
X120885714Y-97392914D01*
X120885714Y-97392914D02*
X120838095Y-97488152D01*
X120838095Y-97488152D02*
X120790476Y-97535771D01*
X120790476Y-97535771D02*
X120695238Y-97583390D01*
X120695238Y-97583390D02*
X120504762Y-97583390D01*
X120504762Y-97583390D02*
X120409524Y-97631009D01*
X120409524Y-97631009D02*
X120361905Y-97678628D01*
X120361905Y-97678628D02*
X120314286Y-97773866D01*
X120314286Y-97773866D02*
X120314286Y-97964342D01*
X120314286Y-97964342D02*
X120361905Y-98059580D01*
X120361905Y-98059580D02*
X120409524Y-98107200D01*
X120409524Y-98107200D02*
X120504762Y-98154819D01*
X120504762Y-98154819D02*
X120695238Y-98154819D01*
X120695238Y-98154819D02*
X120790476Y-98107200D01*
X120790476Y-98107200D02*
X120838095Y-98059580D01*
X120838095Y-98059580D02*
X120885714Y-97964342D01*
X120885714Y-97964342D02*
X120885714Y-97773866D01*
X120885714Y-97773866D02*
X120838095Y-97678628D01*
X120838095Y-97678628D02*
X120790476Y-97631009D01*
X120790476Y-97631009D02*
X120695238Y-97583390D01*
X132854819Y-82866666D02*
X132378628Y-83199999D01*
X132854819Y-83438094D02*
X131854819Y-83438094D01*
X131854819Y-83438094D02*
X131854819Y-83057142D01*
X131854819Y-83057142D02*
X131902438Y-82961904D01*
X131902438Y-82961904D02*
X131950057Y-82914285D01*
X131950057Y-82914285D02*
X132045295Y-82866666D01*
X132045295Y-82866666D02*
X132188152Y-82866666D01*
X132188152Y-82866666D02*
X132283390Y-82914285D01*
X132283390Y-82914285D02*
X132331009Y-82961904D01*
X132331009Y-82961904D02*
X132378628Y-83057142D01*
X132378628Y-83057142D02*
X132378628Y-83438094D01*
X132854819Y-82390475D02*
X132854819Y-82199999D01*
X132854819Y-82199999D02*
X132807200Y-82104761D01*
X132807200Y-82104761D02*
X132759580Y-82057142D01*
X132759580Y-82057142D02*
X132616723Y-81961904D01*
X132616723Y-81961904D02*
X132426247Y-81914285D01*
X132426247Y-81914285D02*
X132045295Y-81914285D01*
X132045295Y-81914285D02*
X131950057Y-81961904D01*
X131950057Y-81961904D02*
X131902438Y-82009523D01*
X131902438Y-82009523D02*
X131854819Y-82104761D01*
X131854819Y-82104761D02*
X131854819Y-82295237D01*
X131854819Y-82295237D02*
X131902438Y-82390475D01*
X131902438Y-82390475D02*
X131950057Y-82438094D01*
X131950057Y-82438094D02*
X132045295Y-82485713D01*
X132045295Y-82485713D02*
X132283390Y-82485713D01*
X132283390Y-82485713D02*
X132378628Y-82438094D01*
X132378628Y-82438094D02*
X132426247Y-82390475D01*
X132426247Y-82390475D02*
X132473866Y-82295237D01*
X132473866Y-82295237D02*
X132473866Y-82104761D01*
X132473866Y-82104761D02*
X132426247Y-82009523D01*
X132426247Y-82009523D02*
X132378628Y-81961904D01*
X132378628Y-81961904D02*
X132283390Y-81914285D01*
X124305595Y-79964819D02*
X124305595Y-80774342D01*
X124305595Y-80774342D02*
X124353214Y-80869580D01*
X124353214Y-80869580D02*
X124400833Y-80917200D01*
X124400833Y-80917200D02*
X124496071Y-80964819D01*
X124496071Y-80964819D02*
X124686547Y-80964819D01*
X124686547Y-80964819D02*
X124781785Y-80917200D01*
X124781785Y-80917200D02*
X124829404Y-80869580D01*
X124829404Y-80869580D02*
X124877023Y-80774342D01*
X124877023Y-80774342D02*
X124877023Y-79964819D01*
X125781785Y-80298152D02*
X125781785Y-80964819D01*
X125543690Y-79917200D02*
X125305595Y-80631485D01*
X125305595Y-80631485D02*
X125924642Y-80631485D01*
X99933333Y-75724819D02*
X99600000Y-75248628D01*
X99361905Y-75724819D02*
X99361905Y-74724819D01*
X99361905Y-74724819D02*
X99742857Y-74724819D01*
X99742857Y-74724819D02*
X99838095Y-74772438D01*
X99838095Y-74772438D02*
X99885714Y-74820057D01*
X99885714Y-74820057D02*
X99933333Y-74915295D01*
X99933333Y-74915295D02*
X99933333Y-75058152D01*
X99933333Y-75058152D02*
X99885714Y-75153390D01*
X99885714Y-75153390D02*
X99838095Y-75201009D01*
X99838095Y-75201009D02*
X99742857Y-75248628D01*
X99742857Y-75248628D02*
X99361905Y-75248628D01*
X100838095Y-74724819D02*
X100361905Y-74724819D01*
X100361905Y-74724819D02*
X100314286Y-75201009D01*
X100314286Y-75201009D02*
X100361905Y-75153390D01*
X100361905Y-75153390D02*
X100457143Y-75105771D01*
X100457143Y-75105771D02*
X100695238Y-75105771D01*
X100695238Y-75105771D02*
X100790476Y-75153390D01*
X100790476Y-75153390D02*
X100838095Y-75201009D01*
X100838095Y-75201009D02*
X100885714Y-75296247D01*
X100885714Y-75296247D02*
X100885714Y-75534342D01*
X100885714Y-75534342D02*
X100838095Y-75629580D01*
X100838095Y-75629580D02*
X100790476Y-75677200D01*
X100790476Y-75677200D02*
X100695238Y-75724819D01*
X100695238Y-75724819D02*
X100457143Y-75724819D01*
X100457143Y-75724819D02*
X100361905Y-75677200D01*
X100361905Y-75677200D02*
X100314286Y-75629580D01*
X114433333Y-107784819D02*
X114100000Y-107308628D01*
X113861905Y-107784819D02*
X113861905Y-106784819D01*
X113861905Y-106784819D02*
X114242857Y-106784819D01*
X114242857Y-106784819D02*
X114338095Y-106832438D01*
X114338095Y-106832438D02*
X114385714Y-106880057D01*
X114385714Y-106880057D02*
X114433333Y-106975295D01*
X114433333Y-106975295D02*
X114433333Y-107118152D01*
X114433333Y-107118152D02*
X114385714Y-107213390D01*
X114385714Y-107213390D02*
X114338095Y-107261009D01*
X114338095Y-107261009D02*
X114242857Y-107308628D01*
X114242857Y-107308628D02*
X113861905Y-107308628D01*
X115290476Y-107118152D02*
X115290476Y-107784819D01*
X115052381Y-106737200D02*
X114814286Y-107451485D01*
X114814286Y-107451485D02*
X115433333Y-107451485D01*
X100633333Y-90459580D02*
X100585714Y-90507200D01*
X100585714Y-90507200D02*
X100442857Y-90554819D01*
X100442857Y-90554819D02*
X100347619Y-90554819D01*
X100347619Y-90554819D02*
X100204762Y-90507200D01*
X100204762Y-90507200D02*
X100109524Y-90411961D01*
X100109524Y-90411961D02*
X100061905Y-90316723D01*
X100061905Y-90316723D02*
X100014286Y-90126247D01*
X100014286Y-90126247D02*
X100014286Y-89983390D01*
X100014286Y-89983390D02*
X100061905Y-89792914D01*
X100061905Y-89792914D02*
X100109524Y-89697676D01*
X100109524Y-89697676D02*
X100204762Y-89602438D01*
X100204762Y-89602438D02*
X100347619Y-89554819D01*
X100347619Y-89554819D02*
X100442857Y-89554819D01*
X100442857Y-89554819D02*
X100585714Y-89602438D01*
X100585714Y-89602438D02*
X100633333Y-89650057D01*
X100966667Y-89554819D02*
X101585714Y-89554819D01*
X101585714Y-89554819D02*
X101252381Y-89935771D01*
X101252381Y-89935771D02*
X101395238Y-89935771D01*
X101395238Y-89935771D02*
X101490476Y-89983390D01*
X101490476Y-89983390D02*
X101538095Y-90031009D01*
X101538095Y-90031009D02*
X101585714Y-90126247D01*
X101585714Y-90126247D02*
X101585714Y-90364342D01*
X101585714Y-90364342D02*
X101538095Y-90459580D01*
X101538095Y-90459580D02*
X101490476Y-90507200D01*
X101490476Y-90507200D02*
X101395238Y-90554819D01*
X101395238Y-90554819D02*
X101109524Y-90554819D01*
X101109524Y-90554819D02*
X101014286Y-90507200D01*
X101014286Y-90507200D02*
X100966667Y-90459580D01*
D10*
X93061904Y-92242580D02*
X93061904Y-91433057D01*
X93061904Y-91433057D02*
X93014285Y-91337819D01*
X93014285Y-91337819D02*
X92966666Y-91290200D01*
X92966666Y-91290200D02*
X92871428Y-91242580D01*
X92871428Y-91242580D02*
X92680952Y-91242580D01*
X92680952Y-91242580D02*
X92585714Y-91290200D01*
X92585714Y-91290200D02*
X92538095Y-91337819D01*
X92538095Y-91337819D02*
X92490476Y-91433057D01*
X92490476Y-91433057D02*
X92490476Y-92242580D01*
X92109523Y-92242580D02*
X91490476Y-92242580D01*
X91490476Y-92242580D02*
X91823809Y-91861628D01*
X91823809Y-91861628D02*
X91680952Y-91861628D01*
X91680952Y-91861628D02*
X91585714Y-91814009D01*
X91585714Y-91814009D02*
X91538095Y-91766390D01*
X91538095Y-91766390D02*
X91490476Y-91671152D01*
X91490476Y-91671152D02*
X91490476Y-91433057D01*
X91490476Y-91433057D02*
X91538095Y-91337819D01*
X91538095Y-91337819D02*
X91585714Y-91290200D01*
X91585714Y-91290200D02*
X91680952Y-91242580D01*
X91680952Y-91242580D02*
X91966666Y-91242580D01*
X91966666Y-91242580D02*
X92061904Y-91290200D01*
X92061904Y-91290200D02*
X92109523Y-91337819D01*
D11*
X131159580Y-83166666D02*
X131207200Y-83214285D01*
X131207200Y-83214285D02*
X131254819Y-83357142D01*
X131254819Y-83357142D02*
X131254819Y-83452380D01*
X131254819Y-83452380D02*
X131207200Y-83595237D01*
X131207200Y-83595237D02*
X131111961Y-83690475D01*
X131111961Y-83690475D02*
X131016723Y-83738094D01*
X131016723Y-83738094D02*
X130826247Y-83785713D01*
X130826247Y-83785713D02*
X130683390Y-83785713D01*
X130683390Y-83785713D02*
X130492914Y-83738094D01*
X130492914Y-83738094D02*
X130397676Y-83690475D01*
X130397676Y-83690475D02*
X130302438Y-83595237D01*
X130302438Y-83595237D02*
X130254819Y-83452380D01*
X130254819Y-83452380D02*
X130254819Y-83357142D01*
X130254819Y-83357142D02*
X130302438Y-83214285D01*
X130302438Y-83214285D02*
X130350057Y-83166666D01*
X130254819Y-82833332D02*
X130254819Y-82166666D01*
X130254819Y-82166666D02*
X131254819Y-82595237D01*
X114009819Y-81533333D02*
X114724104Y-81533333D01*
X114724104Y-81533333D02*
X114866961Y-81580952D01*
X114866961Y-81580952D02*
X114962200Y-81676190D01*
X114962200Y-81676190D02*
X115009819Y-81819047D01*
X115009819Y-81819047D02*
X115009819Y-81914285D01*
X114105057Y-81104761D02*
X114057438Y-81057142D01*
X114057438Y-81057142D02*
X114009819Y-80961904D01*
X114009819Y-80961904D02*
X114009819Y-80723809D01*
X114009819Y-80723809D02*
X114057438Y-80628571D01*
X114057438Y-80628571D02*
X114105057Y-80580952D01*
X114105057Y-80580952D02*
X114200295Y-80533333D01*
X114200295Y-80533333D02*
X114295533Y-80533333D01*
X114295533Y-80533333D02*
X114438390Y-80580952D01*
X114438390Y-80580952D02*
X115009819Y-81152380D01*
X115009819Y-81152380D02*
X115009819Y-80533333D01*
X108333333Y-97429580D02*
X108285714Y-97477200D01*
X108285714Y-97477200D02*
X108142857Y-97524819D01*
X108142857Y-97524819D02*
X108047619Y-97524819D01*
X108047619Y-97524819D02*
X107904762Y-97477200D01*
X107904762Y-97477200D02*
X107809524Y-97381961D01*
X107809524Y-97381961D02*
X107761905Y-97286723D01*
X107761905Y-97286723D02*
X107714286Y-97096247D01*
X107714286Y-97096247D02*
X107714286Y-96953390D01*
X107714286Y-96953390D02*
X107761905Y-96762914D01*
X107761905Y-96762914D02*
X107809524Y-96667676D01*
X107809524Y-96667676D02*
X107904762Y-96572438D01*
X107904762Y-96572438D02*
X108047619Y-96524819D01*
X108047619Y-96524819D02*
X108142857Y-96524819D01*
X108142857Y-96524819D02*
X108285714Y-96572438D01*
X108285714Y-96572438D02*
X108333333Y-96620057D01*
X109285714Y-97524819D02*
X108714286Y-97524819D01*
X109000000Y-97524819D02*
X109000000Y-96524819D01*
X109000000Y-96524819D02*
X108904762Y-96667676D01*
X108904762Y-96667676D02*
X108809524Y-96762914D01*
X108809524Y-96762914D02*
X108714286Y-96810533D01*
X95554819Y-83638094D02*
X94554819Y-83638094D01*
X94554819Y-83638094D02*
X94554819Y-83399999D01*
X94554819Y-83399999D02*
X94602438Y-83257142D01*
X94602438Y-83257142D02*
X94697676Y-83161904D01*
X94697676Y-83161904D02*
X94792914Y-83114285D01*
X94792914Y-83114285D02*
X94983390Y-83066666D01*
X94983390Y-83066666D02*
X95126247Y-83066666D01*
X95126247Y-83066666D02*
X95316723Y-83114285D01*
X95316723Y-83114285D02*
X95411961Y-83161904D01*
X95411961Y-83161904D02*
X95507200Y-83257142D01*
X95507200Y-83257142D02*
X95554819Y-83399999D01*
X95554819Y-83399999D02*
X95554819Y-83638094D01*
X94650057Y-82685713D02*
X94602438Y-82638094D01*
X94602438Y-82638094D02*
X94554819Y-82542856D01*
X94554819Y-82542856D02*
X94554819Y-82304761D01*
X94554819Y-82304761D02*
X94602438Y-82209523D01*
X94602438Y-82209523D02*
X94650057Y-82161904D01*
X94650057Y-82161904D02*
X94745295Y-82114285D01*
X94745295Y-82114285D02*
X94840533Y-82114285D01*
X94840533Y-82114285D02*
X94983390Y-82161904D01*
X94983390Y-82161904D02*
X95554819Y-82733332D01*
X95554819Y-82733332D02*
X95554819Y-82114285D01*
X115961905Y-98154819D02*
X115961905Y-97154819D01*
X115961905Y-97154819D02*
X116200000Y-97154819D01*
X116200000Y-97154819D02*
X116342857Y-97202438D01*
X116342857Y-97202438D02*
X116438095Y-97297676D01*
X116438095Y-97297676D02*
X116485714Y-97392914D01*
X116485714Y-97392914D02*
X116533333Y-97583390D01*
X116533333Y-97583390D02*
X116533333Y-97726247D01*
X116533333Y-97726247D02*
X116485714Y-97916723D01*
X116485714Y-97916723D02*
X116438095Y-98011961D01*
X116438095Y-98011961D02*
X116342857Y-98107200D01*
X116342857Y-98107200D02*
X116200000Y-98154819D01*
X116200000Y-98154819D02*
X115961905Y-98154819D01*
X117485714Y-98154819D02*
X116914286Y-98154819D01*
X117200000Y-98154819D02*
X117200000Y-97154819D01*
X117200000Y-97154819D02*
X117104762Y-97297676D01*
X117104762Y-97297676D02*
X117009524Y-97392914D01*
X117009524Y-97392914D02*
X116914286Y-97440533D01*
D12*
%TO.C,R6*%
X92977500Y-86254724D02*
X92977500Y-85745276D01*
X94022500Y-86254724D02*
X94022500Y-85745276D01*
%TO.C,SW4*%
X78630000Y-86150000D02*
X78630000Y-83950000D01*
X79250000Y-81930000D02*
X84250000Y-81930000D01*
X79250000Y-88170000D02*
X84250000Y-88170000D01*
X84870000Y-83950000D02*
X84870000Y-86150000D01*
X83500000Y-85050000D02*
G75*
G02*
X80000000Y-85050000I-1750000J0D01*
G01*
X80000000Y-85050000D02*
G75*
G02*
X83500000Y-85050000I1750000J0D01*
G01*
%TO.C,D4*%
X107590000Y-70410000D02*
X107590000Y-64250000D01*
X107590000Y-70410000D02*
X102470000Y-70410000D01*
X106300000Y-75620000D02*
X106300000Y-70410000D01*
X106300000Y-70410000D02*
X106300000Y-75620000D01*
X103760000Y-75620000D02*
X103760000Y-70410000D01*
X103760000Y-70410000D02*
X103760000Y-75620000D01*
X102470000Y-70410000D02*
X102470000Y-64250000D01*
X102470000Y-70410000D02*
X102070000Y-70410000D01*
X102470000Y-69290000D02*
X102470000Y-70410000D01*
X102070000Y-70410000D02*
X102070000Y-69290000D01*
X102070000Y-69290000D02*
X102470000Y-69290000D01*
X102470000Y-64250000D02*
G75*
G02*
X107590000Y-64250000I2560000J0D01*
G01*
%TO.C,U1*%
X115510000Y-103760000D02*
X113690000Y-103760000D01*
X115510000Y-103710000D02*
X115510000Y-103760000D01*
X115510000Y-100640000D02*
X115510000Y-100690000D01*
X113690000Y-103760000D02*
X113690000Y-103710000D01*
X113690000Y-100690000D02*
X113690000Y-100640000D01*
X113690000Y-100640000D02*
X115510000Y-100640000D01*
X116290000Y-104040000D02*
X115810000Y-104040000D01*
X116050000Y-103710000D01*
X116290000Y-104040000D01*
G36*
X116290000Y-104040000D02*
G01*
X115810000Y-104040000D01*
X116050000Y-103710000D01*
X116290000Y-104040000D01*
G37*
%TO.C,SW5*%
X116350000Y-94870000D02*
X114150000Y-94870000D01*
X112130000Y-94250000D02*
X112130000Y-89250000D01*
X118370000Y-94250000D02*
X118370000Y-89250000D01*
X114150000Y-88630000D02*
X116350000Y-88630000D01*
X117000000Y-91750000D02*
G75*
G02*
X113500000Y-91750000I-1750000J0D01*
G01*
X113500000Y-91750000D02*
G75*
G02*
X117000000Y-91750000I1750000J0D01*
G01*
%TO.C,J3*%
X73420000Y-83370000D02*
X74800000Y-83370000D01*
X73420000Y-84750000D02*
X73420000Y-83370000D01*
X73420000Y-86020000D02*
X73420000Y-98830000D01*
X73420000Y-86020000D02*
X76180000Y-86020000D01*
X73420000Y-98830000D02*
X76180000Y-98830000D01*
X76180000Y-86020000D02*
X76180000Y-98830000D01*
%TO.C,R2*%
X97922500Y-103045276D02*
X97922500Y-103554724D01*
X96877500Y-103045276D02*
X96877500Y-103554724D01*
%TO.C,JP1*%
X112400000Y-85500000D02*
X109600000Y-85500000D01*
X112400000Y-83500000D02*
X112400000Y-85500000D01*
X109600000Y-85500000D02*
X109600000Y-83500000D01*
X109600000Y-83500000D02*
X112400000Y-83500000D01*
%TO.C,C4*%
X99459420Y-92690000D02*
X99740580Y-92690000D01*
X99459420Y-93710000D02*
X99740580Y-93710000D01*
%TO.C,C6*%
X107040580Y-93910000D02*
X106759420Y-93910000D01*
X107040580Y-92890000D02*
X106759420Y-92890000D01*
%TO.C,SW3*%
X78630000Y-98150000D02*
X78630000Y-95950000D01*
X79250000Y-93930000D02*
X84250000Y-93930000D01*
X79250000Y-100170000D02*
X84250000Y-100170000D01*
X84870000Y-95950000D02*
X84870000Y-98150000D01*
X83500000Y-97050000D02*
G75*
G02*
X80000000Y-97050000I-1750000J0D01*
G01*
X80000000Y-97050000D02*
G75*
G02*
X83500000Y-97050000I1750000J0D01*
G01*
%TO.C,SW6*%
X128350000Y-94870000D02*
X126150000Y-94870000D01*
X124130000Y-94250000D02*
X124130000Y-89250000D01*
X130370000Y-94250000D02*
X130370000Y-89250000D01*
X126150000Y-88630000D02*
X128350000Y-88630000D01*
X129000000Y-91750000D02*
G75*
G02*
X125500000Y-91750000I-1750000J0D01*
G01*
X125500000Y-91750000D02*
G75*
G02*
X129000000Y-91750000I1750000J0D01*
G01*
%TO.C,R7*%
X89777500Y-86254724D02*
X89777500Y-85745276D01*
X90822500Y-86254724D02*
X90822500Y-85745276D01*
%TO.C,D3*%
X91035000Y-81040000D02*
X89565000Y-81040000D01*
X89565000Y-81040000D02*
X89565000Y-83500000D01*
X91035000Y-83500000D02*
X91035000Y-81040000D01*
%TO.C,C2*%
X130810000Y-99959420D02*
X130810000Y-100240580D01*
X129790000Y-99959420D02*
X129790000Y-100240580D01*
%TO.C,R3*%
X112554724Y-99622500D02*
X112045276Y-99622500D01*
X112554724Y-98577500D02*
X112045276Y-98577500D01*
%TO.C,C5*%
X107040580Y-92310000D02*
X106759420Y-92310000D01*
X107040580Y-91290000D02*
X106759420Y-91290000D01*
%TO.C,R1*%
X99422500Y-103045276D02*
X99422500Y-103554724D01*
X98377500Y-103045276D02*
X98377500Y-103554724D01*
%TO.C,U2*%
X108160000Y-87690000D02*
X108160000Y-89510000D01*
X108110000Y-87690000D02*
X108160000Y-87690000D01*
X105040000Y-87690000D02*
X105090000Y-87690000D01*
X108160000Y-89510000D02*
X108110000Y-89510000D01*
X106990000Y-89510000D02*
X106210000Y-89510000D01*
X105090000Y-89510000D02*
X105040000Y-89510000D01*
X105040000Y-89510000D02*
X105040000Y-87690000D01*
X108440000Y-87390000D02*
X108110000Y-87150000D01*
X108440000Y-86910000D01*
X108440000Y-87390000D01*
G36*
X108440000Y-87390000D02*
G01*
X108110000Y-87150000D01*
X108440000Y-86910000D01*
X108440000Y-87390000D01*
G37*
%TO.C,R8*%
X120354724Y-99622500D02*
X119845276Y-99622500D01*
X120354724Y-98577500D02*
X119845276Y-98577500D01*
%TO.C,R9*%
X132822500Y-85245276D02*
X132822500Y-85754724D01*
X131777500Y-85245276D02*
X131777500Y-85754724D01*
%TO.C,U4*%
X123117500Y-81250000D02*
X127017500Y-81250000D01*
X127017500Y-86250000D02*
X123117500Y-86250000D01*
X121197500Y-81877386D02*
X120867500Y-82117386D01*
X120867500Y-81637386D01*
X121197500Y-81877386D01*
G36*
X121197500Y-81877386D02*
G01*
X120867500Y-82117386D01*
X120867500Y-81637386D01*
X121197500Y-81877386D01*
G37*
%TO.C,R5*%
X99845276Y-76177500D02*
X100354724Y-76177500D01*
X99845276Y-77222500D02*
X100354724Y-77222500D01*
%TO.C,R4*%
X114854724Y-106422500D02*
X114345276Y-106422500D01*
X114854724Y-105377500D02*
X114345276Y-105377500D01*
%TO.C,C3*%
X98059420Y-89690000D02*
X98340580Y-89690000D01*
X98059420Y-90710000D02*
X98340580Y-90710000D01*
%TO.C,U3*%
X94010000Y-93860000D02*
X90790000Y-93860000D01*
X90790000Y-88540000D02*
X94010000Y-88540000D01*
X95920000Y-93690000D02*
X95590000Y-93450000D01*
X95920000Y-93210000D01*
X95920000Y-93690000D01*
G36*
X95920000Y-93690000D02*
G01*
X95590000Y-93450000D01*
X95920000Y-93210000D01*
X95920000Y-93690000D01*
G37*
%TO.C,C7*%
X131310000Y-85359420D02*
X131310000Y-85640580D01*
X130290000Y-85359420D02*
X130290000Y-85640580D01*
%TO.C,J2*%
X113555000Y-79820000D02*
X113555000Y-81200000D01*
X112175000Y-79820000D02*
X113555000Y-79820000D01*
X110905000Y-79820000D02*
X108255000Y-79820000D01*
X110905000Y-79820000D02*
X110905000Y-82580000D01*
X108255000Y-79820000D02*
X108255000Y-82580000D01*
X110905000Y-82580000D02*
X108255000Y-82580000D01*
%TO.C,C1*%
X108359420Y-97990000D02*
X108640580Y-97990000D01*
X108359420Y-99010000D02*
X108640580Y-99010000D01*
%TO.C,D2*%
X94235000Y-81040000D02*
X92765000Y-81040000D01*
X92765000Y-81040000D02*
X92765000Y-83500000D01*
X94235000Y-83500000D02*
X94235000Y-81040000D01*
%TO.C,D1*%
X114940000Y-98465000D02*
X114940000Y-99935000D01*
X114940000Y-99935000D02*
X117400000Y-99935000D01*
X117400000Y-98465000D02*
X114940000Y-98465000D01*
%TD*%
M02*
