%TF.GenerationSoftware,KiCad,Pcbnew,9.0.6*%
%TF.CreationDate,2026-03-02T13:59:58-05:00*%
%TF.ProjectId,hexbug_remote,68657862-7567-45f7-9265-6d6f74652e6b,rev?*%
%TF.SameCoordinates,Original*%
%TF.FileFunction,Paste,Top*%
%TF.FilePolarity,Positive*%
%FSLAX46Y46*%
G04 Gerber Fmt 4.6, Leading zero omitted, Abs format (unit mm)*
G04 Created by KiCad (PCBNEW 9.0.6) date 2026-03-02 13:59:58*
%MOMM*%
%LPD*%
G01*
G04 APERTURE LIST*
G04 Aperture macros list*
%AMRoundRect*
0 Rectangle with rounded corners*
0 $1 Rounding radius*
0 $2 $3 $4 $5 $6 $7 $8 $9 X,Y pos of 4 corners*
0 Add a 4 corners polygon primitive as box body*
4,1,4,$2,$3,$4,$5,$6,$7,$8,$9,$2,$3,0*
0 Add four circle primitives for the rounded corners*
1,1,$1+$1,$2,$3*
1,1,$1+$1,$4,$5*
1,1,$1+$1,$6,$7*
1,1,$1+$1,$8,$9*
0 Add four rect primitives between the rounded corners*
20,1,$1+$1,$2,$3,$4,$5,0*
20,1,$1+$1,$4,$5,$6,$7,0*
20,1,$1+$1,$6,$7,$8,$9,0*
20,1,$1+$1,$8,$9,$2,$3,0*%
G04 Aperture macros list end*
%ADD10RoundRect,0.237500X0.237500X-0.250000X0.237500X0.250000X-0.237500X0.250000X-0.237500X-0.250000X0*%
%ADD11RoundRect,0.150000X0.512500X0.150000X-0.512500X0.150000X-0.512500X-0.150000X0.512500X-0.150000X0*%
%ADD12RoundRect,0.237500X-0.237500X0.250000X-0.237500X-0.250000X0.237500X-0.250000X0.237500X0.250000X0*%
%ADD13RoundRect,0.225000X-0.225000X-0.250000X0.225000X-0.250000X0.225000X0.250000X-0.225000X0.250000X0*%
%ADD14RoundRect,0.225000X0.225000X0.250000X-0.225000X0.250000X-0.225000X-0.250000X0.225000X-0.250000X0*%
%ADD15RoundRect,0.237500X-0.237500X0.287500X-0.237500X-0.287500X0.237500X-0.287500X0.237500X0.287500X0*%
%ADD16RoundRect,0.225000X-0.250000X0.225000X-0.250000X-0.225000X0.250000X-0.225000X0.250000X0.225000X0*%
%ADD17RoundRect,0.237500X0.250000X0.237500X-0.250000X0.237500X-0.250000X-0.237500X0.250000X-0.237500X0*%
%ADD18RoundRect,0.150000X-0.150000X0.512500X-0.150000X-0.512500X0.150000X-0.512500X0.150000X0.512500X0*%
%ADD19RoundRect,0.237500X-0.250000X-0.237500X0.250000X-0.237500X0.250000X0.237500X-0.250000X0.237500X0*%
%ADD20RoundRect,0.075000X0.650000X0.075000X-0.650000X0.075000X-0.650000X-0.075000X0.650000X-0.075000X0*%
%ADD21RoundRect,0.237500X-0.287500X-0.237500X0.287500X-0.237500X0.287500X0.237500X-0.287500X0.237500X0*%
G04 APERTURE END LIST*
D10*
%TO.C,R6*%
X93500000Y-86912500D03*
X93500000Y-85087500D03*
%TD*%
D11*
%TO.C,U1*%
X115737500Y-103150000D03*
X115737500Y-102200000D03*
X115737500Y-101250000D03*
X113462500Y-101250000D03*
X113462500Y-102200000D03*
X113462500Y-103150000D03*
%TD*%
D12*
%TO.C,R2*%
X97400000Y-102387500D03*
X97400000Y-104212500D03*
%TD*%
D13*
%TO.C,C4*%
X98825000Y-93200000D03*
X100375000Y-93200000D03*
%TD*%
D14*
%TO.C,C6*%
X107675000Y-93400000D03*
X106125000Y-93400000D03*
%TD*%
D10*
%TO.C,R7*%
X90300000Y-86912500D03*
X90300000Y-85087500D03*
%TD*%
D15*
%TO.C,D3*%
X90300000Y-81825000D03*
X90300000Y-83575000D03*
%TD*%
D16*
%TO.C,C2*%
X130300000Y-99325000D03*
X130300000Y-100875000D03*
%TD*%
D17*
%TO.C,R3*%
X113212500Y-99100000D03*
X111387500Y-99100000D03*
%TD*%
D14*
%TO.C,C5*%
X107675000Y-91800000D03*
X106125000Y-91800000D03*
%TD*%
D12*
%TO.C,R1*%
X98900000Y-102387500D03*
X98900000Y-104212500D03*
%TD*%
D18*
%TO.C,U2*%
X107550000Y-87462500D03*
X106600000Y-87462500D03*
X105650000Y-87462500D03*
X105650000Y-89737500D03*
X107550000Y-89737500D03*
%TD*%
D17*
%TO.C,R8*%
X121012500Y-99100000D03*
X119187500Y-99100000D03*
%TD*%
D19*
%TO.C,R5*%
X99187500Y-76700000D03*
X101012500Y-76700000D03*
%TD*%
D17*
%TO.C,R4*%
X115512500Y-105900000D03*
X113687500Y-105900000D03*
%TD*%
D13*
%TO.C,C3*%
X97425000Y-90200000D03*
X98975000Y-90200000D03*
%TD*%
D20*
%TO.C,U3*%
X94600000Y-93450000D03*
X94600000Y-92950000D03*
X94600000Y-92450000D03*
X94600000Y-91950000D03*
X94600000Y-91450000D03*
X94600000Y-90950000D03*
X94600000Y-90450000D03*
X94600000Y-89950000D03*
X94600000Y-89450000D03*
X94600000Y-88950000D03*
X90200000Y-88950000D03*
X90200000Y-89450000D03*
X90200000Y-89950000D03*
X90200000Y-90450000D03*
X90200000Y-90950000D03*
X90200000Y-91450000D03*
X90200000Y-91950000D03*
X90200000Y-92450000D03*
X90200000Y-92950000D03*
X90200000Y-93450000D03*
%TD*%
D13*
%TO.C,C1*%
X107725000Y-98500000D03*
X109275000Y-98500000D03*
%TD*%
D15*
%TO.C,D2*%
X93500000Y-81825000D03*
X93500000Y-83575000D03*
%TD*%
D21*
%TO.C,D1*%
X115725000Y-99200000D03*
X117475000Y-99200000D03*
%TD*%
M02*
