%TF.GenerationSoftware,KiCad,Pcbnew,9.0.6*%
%TF.CreationDate,2026-03-02T13:59:58-05:00*%
%TF.ProjectId,hexbug_remote,68657862-7567-45f7-9265-6d6f74652e6b,rev?*%
%TF.SameCoordinates,Original*%
%TF.FileFunction,Soldermask,Bot*%
%TF.FilePolarity,Negative*%
%FSLAX46Y46*%
G04 Gerber Fmt 4.6, Leading zero omitted, Abs format (unit mm)*
G04 Created by KiCad (PCBNEW 9.0.6) date 2026-03-02 13:59:58*
%MOMM*%
%LPD*%
G01*
G04 APERTURE LIST*
G04 Aperture macros list*
%AMRoundRect*
0 Rectangle with rounded corners*
0 $1 Rounding radius*
0 $2 $3 $4 $5 $6 $7 $8 $9 X,Y pos of 4 corners*
0 Add a 4 corners polygon primitive as box body*
4,1,4,$2,$3,$4,$5,$6,$7,$8,$9,$2,$3,0*
0 Add four circle primitives for the rounded corners*
1,1,$1+$1,$2,$3*
1,1,$1+$1,$4,$5*
1,1,$1+$1,$6,$7*
1,1,$1+$1,$8,$9*
0 Add four rect primitives between the rounded corners*
20,1,$1+$1,$2,$3,$4,$5,0*
20,1,$1+$1,$4,$5,$6,$7,0*
20,1,$1+$1,$6,$7,$8,$9,0*
20,1,$1+$1,$8,$9,$2,$3,0*%
G04 Aperture macros list end*
%ADD10C,1.700000*%
%ADD11R,1.800000X1.800000*%
%ADD12C,1.800000*%
%ADD13R,1.700000X1.700000*%
%ADD14C,2.200000*%
%ADD15R,2.170000X2.170000*%
%ADD16C,2.170000*%
%ADD17C,0.650000*%
%ADD18RoundRect,0.150000X0.150000X0.425000X-0.150000X0.425000X-0.150000X-0.425000X0.150000X-0.425000X0*%
%ADD19RoundRect,0.075000X0.075000X0.500000X-0.075000X0.500000X-0.075000X-0.500000X0.075000X-0.500000X0*%
%ADD20O,1.000000X1.800000*%
%ADD21O,1.000000X2.100000*%
%ADD22C,2.100000*%
%ADD23C,1.750000*%
%ADD24RoundRect,0.070000X0.630000X0.630000X-0.630000X0.630000X-0.630000X-0.630000X0.630000X-0.630000X0*%
%ADD25C,1.400000*%
%ADD26C,2.000000*%
G04 APERTURE END LIST*
D10*
%TO.C,SW4*%
X78500000Y-82800000D03*
X85000000Y-82800000D03*
X78500000Y-87300000D03*
X85000000Y-87300000D03*
%TD*%
D11*
%TO.C,D4*%
X106300000Y-76700000D03*
D12*
X103760000Y-76700000D03*
%TD*%
D10*
%TO.C,SW5*%
X113000000Y-95000000D03*
X113000000Y-88500000D03*
X117500000Y-95000000D03*
X117500000Y-88500000D03*
%TD*%
D13*
%TO.C,J3*%
X74800000Y-84750000D03*
D10*
X74800000Y-87290000D03*
X74800000Y-89830000D03*
X74800000Y-92370000D03*
X74800000Y-94910000D03*
X74800000Y-97450000D03*
%TD*%
D14*
%TO.C,REF\u002A\u002A*%
X135100000Y-75400000D03*
%TD*%
D10*
%TO.C,SW3*%
X78500000Y-94800000D03*
X85000000Y-94800000D03*
X78500000Y-99300000D03*
X85000000Y-99300000D03*
%TD*%
%TO.C,SW6*%
X125000000Y-95000000D03*
X125000000Y-88500000D03*
X129500000Y-95000000D03*
X129500000Y-88500000D03*
%TD*%
D14*
%TO.C,REF\u002A\u002A*%
X135100000Y-105400000D03*
%TD*%
%TO.C,REF\u002A\u002A*%
X76100000Y-75400000D03*
%TD*%
%TO.C,REF\u002A\u002A*%
X76100000Y-105400000D03*
%TD*%
D13*
%TO.C,J2*%
X112175000Y-81200000D03*
D10*
X109635000Y-81200000D03*
%TD*%
D15*
%TO.C,BT1*%
X134650000Y-91500000D03*
X132900000Y-91500000D03*
D16*
X80900000Y-91500000D03*
X79150000Y-91500000D03*
%TD*%
D17*
%TO.C,J1*%
X108890000Y-102820000D03*
X103110000Y-102820000D03*
D18*
X109200000Y-101745000D03*
X108400000Y-101745000D03*
D19*
X107250000Y-101745000D03*
X106250000Y-101745000D03*
X105750000Y-101745000D03*
X104750000Y-101745000D03*
D18*
X103600000Y-101745000D03*
X102800000Y-101745000D03*
X102800000Y-101745000D03*
X103600000Y-101745000D03*
D19*
X104250000Y-101745000D03*
X105250000Y-101745000D03*
X106750000Y-101745000D03*
X107750000Y-101745000D03*
D18*
X108400000Y-101745000D03*
X109200000Y-101745000D03*
D20*
X110320000Y-106500000D03*
D21*
X110320000Y-102320000D03*
D20*
X101680000Y-106500000D03*
D21*
X101680000Y-102320000D03*
%TD*%
D22*
%TO.C,SW2*%
X88550000Y-77590000D03*
X81540000Y-77590000D03*
D23*
X87300000Y-75100000D03*
X82800000Y-75100000D03*
%TD*%
D22*
%TO.C,SW1*%
X126950000Y-77590000D03*
X119940000Y-77590000D03*
D23*
X125700000Y-75100000D03*
X121200000Y-75100000D03*
%TD*%
D24*
%TO.C,SW8*%
X127000000Y-105900000D03*
D25*
X125000000Y-105900000D03*
X123000000Y-105900000D03*
D26*
X129100000Y-105900000D03*
X120900000Y-105900000D03*
%TD*%
D24*
%TO.C,SW7*%
X93000000Y-105900000D03*
D25*
X91000000Y-105900000D03*
X89000000Y-105900000D03*
X87000000Y-105900000D03*
X85000000Y-105900000D03*
X83000000Y-105900000D03*
D26*
X95150000Y-105900000D03*
X80850000Y-105900000D03*
%TD*%
M02*
