M48
; DRILL file {KiCad 9.0.6} date 2026-03-02T14:00:23-0500
; FORMAT={-:-/ absolute / metric / decimal}
; #@! TF.CreationDate,2026-03-02T14:00:23-05:00
; #@! TF.GenerationSoftware,Kicad,Pcbnew,9.0.6
; #@! TF.FileFunction,Plated,1,2,PTH
FMAT,2
METRIC
; #@! TA.AperFunction,Plated,PTH,ViaDrill
T1C0.300
; #@! TA.AperFunction,Plated,PTH,ViaDrill
T2C0.400
; #@! TA.AperFunction,Plated,PTH,ViaDrill
T3C0.500
; #@! TA.AperFunction,Plated,PTH,ComponentDrill
T4C0.600
; #@! TA.AperFunction,Plated,PTH,ComponentDrill
T5C0.800
; #@! TA.AperFunction,Plated,PTH,ComponentDrill
T6C0.900
; #@! TA.AperFunction,Plated,PTH,ComponentDrill
T7C0.990
; #@! TA.AperFunction,Plated,PTH,ComponentDrill
T8C1.000
; #@! TA.AperFunction,Plated,PTH,ComponentDrill
T9C1.020
; #@! TA.AperFunction,Plated,PTH,ComponentDrill
T10C1.170
; #@! TA.AperFunction,Plated,PTH,ComponentDrill
T11C1.300
%
G90
G05
T1
X84.6Y-88.9
X88.35Y-88.9
X88.85Y-81.65
X92.1Y-81.65
X92.9Y-91.45
X96.1Y-90.15
X97.35Y-88.9
X97.35Y-105.4
X98.85Y-88.9
X98.85Y-105.4
X100.35Y-94.4
X104.6Y-91.9
X104.6Y-93.4
X106.6Y-85.9
X112.35Y-105.9
X128.85Y-100.9
T2
X109.35Y-93.4
T3
X102.85Y-100.15
X104.1Y-99.15
X104.85Y-85.9
X106.1Y-98.4
X108.1Y-100.15
X109.85Y-100.4
X110.1Y-86.9
X111.35Y-100.4
X121.1Y-96.15
X122.6Y-96.15
X123.35Y-100.4
X125.35Y-100.65
T5
X83.0Y-105.9
X85.0Y-105.9
X87.0Y-105.9
X89.0Y-105.9
X91.0Y-105.9
X93.0Y-105.9
X123.0Y-105.9
X125.0Y-105.9
X127.0Y-105.9
T6
X103.76Y-76.7
X106.3Y-76.7
T7
X82.8Y-75.1
X87.3Y-75.1
X121.2Y-75.1
X125.7Y-75.1
T8
X74.8Y-84.75
X74.8Y-87.29
X74.8Y-89.83
X74.8Y-92.37
X74.8Y-94.91
X74.8Y-97.45
X78.5Y-82.8
X78.5Y-87.3
X78.5Y-94.8
X78.5Y-99.3
X85.0Y-82.8
X85.0Y-87.3
X85.0Y-94.8
X85.0Y-99.3
X109.635Y-81.2
X112.175Y-81.2
X113.0Y-88.5
X113.0Y-95.0
X117.5Y-88.5
X117.5Y-95.0
X125.0Y-88.5
X125.0Y-95.0
X129.5Y-88.5
X129.5Y-95.0
T9
X80.9Y-91.5
X132.9Y-91.5
T10
X79.15Y-91.5
X134.65Y-91.5
T11
X80.85Y-105.9
X81.54Y-77.59
X88.55Y-77.59
X95.15Y-105.9
X119.94Y-77.59
X120.9Y-105.9
X126.95Y-77.59
X129.1Y-105.9
T4
G00X101.68Y-102.87
M15
G01X101.68Y-101.77
M16
G05
G00X101.68Y-106.9
M15
G01X101.68Y-106.1
M16
G05
G00X110.32Y-102.87
M15
G01X110.32Y-101.77
M16
G05
G00X110.32Y-106.9
M15
G01X110.32Y-106.1
M16
G05
M30
